<?xml version="1.0" standalone="no"?>
<!DOCTYPE svg PUBLIC "-//W3C//DTD SVG 20010904//EN"
 "http://www.w3.org/TR/2001/REC-SVG-20010904/DTD/svg10.dtd">
<svg version="1.0" xmlns="http://www.w3.org/2000/svg"
 width="365.000000pt" height="365.000000pt" viewBox="0 0 365.000000 365.000000"
 preserveAspectRatio="xMidYMid meet">
<metadata>
Created by potrace 1.11, written by Peter Selinger 2001-2013
</metadata>
<g transform="translate(0.000000,365.000000) scale(0.100000,-0.100000)"
fill="#000000" stroke="none">
<path d="M52 2713 c9 -10 13 -24 11 -31 -4 -11 607 -623 768 -768 258 -233
431 -396 687 -649 163 -161 301 -290 311 -290 10 0 99 75 197 166 98 92 238
216 309 277 72 60 238 219 370 354 132 134 278 276 323 317 46 40 170 163 275
274 105 111 212 224 239 252 32 32 48 56 45 67 -3 10 -1 21 4 24 5 3 9 9 9 15
0 5 -675 9 -1782 9 -1695 0 -1780 -1 -1766 -17z m973 -12 c-23 -10 -662 -7
-672 3 -3 3 151 6 343 5 192 0 340 -4 329 -8z m382 2 c-10 -9 -271 -12 -309
-3 -20 5 34 8 141 9 96 1 171 -2 168 -6z m639 -2 c-6 -10 -583 -8 -593 2 -3 4
130 7 296 7 167 0 300 -4 297 -9z m460 2 c-10 -11 -402 -11 -418 -1 -7 4 86 8
206 8 121 0 216 -3 212 -7z m751 1 c-10 -10 -684 -12 -699 -3 -7 5 149 9 346
9 198 0 356 -3 353 -6z m-2217 -54 c27 -17 6 -18 -105 -5 l-110 12 100 2 c55
0 107 -3 115 -9z m388 -8 c11 -11 63 -72 118 -137 54 -65 112 -133 127 -152
16 -18 25 -33 21 -33 -9 0 -537 275 -571 298 -13 8 -23 21 -23 28 0 11 30 14
155 14 137 0 157 -2 173 -18z m592 13 c0 -11 -189 -395 -194 -395 -4 0 -137
156 -295 348 l-43 52 266 0 c146 0 266 -2 266 -5z m425 -16 c-19 -20 -495
-322 -529 -335 -12 -5 7 43 64 157 45 90 89 172 98 182 13 15 36 17 200 17
l185 0 -18 -21z m230 11 c-92 -12 -153 -12 -135 0 8 5 56 9 105 8 89 -1 89 -1
30 -8z m-2080 -40 c165 -17 325 -33 355 -36 109 -10 131 -16 145 -37 19 -31
136 -329 131 -335 -3 -2 -107 6 -231 19 l-227 23 -261 184 c-144 101 -272 193
-285 203 l-24 18 49 -5 c26 -2 183 -18 348 -34z m48 33 c-7 -2 -19 -2 -25 0
-7 3 -2 5 12 5 14 0 19 -2 13 -5z m2330 0 c-7 -2 -19 -2 -25 0 -7 3 -2 5 12 5
14 0 19 -2 13 -5z m456 3 c-4 -4 -318 -197 -524 -322 l-129 -78 -135 -23
c-204 -34 -181 -53 -181 151 0 118 4 177 11 182 6 3 100 15 208 25 186 17 601
55 686 62 22 2 46 4 54 5 8 1 12 0 10 -2z m-2706 -13 c-13 -2 -33 -2 -45 0
-13 2 -3 4 22 4 25 0 35 -2 23 -4z m2147 -3 c-30 -5 -75 -8 -100 -7 -45 0 -45
0 10 7 30 4 75 7 100 7 44 0 44 0 -10 -7z m-1940 -15 c58 -7 85 -12 60 -13
-25 0 -90 6 -145 13 -55 7 -82 13 -60 13 22 0 87 -6 145 -13z m1735 -5 c-33
-4 -80 -8 -105 -7 -44 0 -44 0 10 7 30 4 78 7 105 7 l50 0 -60 -7z m-1470 -68
c-3 -3 -11 0 -18 7 -9 10 -8 11 6 5 10 -3 15 -9 12 -12z m40 -20 c-3 -3 -11 0
-18 7 -9 10 -8 11 6 5 10 -3 15 -9 12 -12z m2099 -45 c-27 -28 -89 -94 -139
-144 l-90 -93 -85 0 c-47 0 -91 4 -97 8 -8 5 36 37 125 91 75 45 180 109 232
141 52 32 97 56 99 54 3 -2 -17 -28 -45 -57z m-916 41 c8 -8 12 -60 12 -169
l0 -158 -32 4 c-18 3 -123 12 -233 21 -110 8 -206 18 -214 20 -11 4 428 290
450 293 3 1 10 -4 17 -11z m-973 -143 c155 -80 261 -141 250 -143 -45 -6 -410
-40 -411 -39 -14 29 -124 309 -124 317 0 15 -24 26 285 -135z m-868 -71 c40
-28 69 -54 66 -58 -3 -3 -20 -6 -37 -6 -27 0 -48 17 -136 106 l-105 107 70
-49 c39 -27 102 -72 142 -100z m868 108 c-3 -3 -11 0 -18 7 -9 10 -8 11 6 5
10 -3 15 -9 12 -12z m234 -118 c14 -12 -19 -1 -35 12 -18 14 -18 14 6 3 14 -6
27 -13 29 -15z m-1016 -81 c-13 -2 -33 -2 -45 0 -13 2 -3 4 22 4 25 0 35 -2
23 -4z m2415 2 c-7 -7 -199 -8 -206 -1 -3 3 43 6 103 6 60 0 106 -2 103 -5z
m-1358 -14 c-15 -9 -256 -32 -300 -30 -19 1 174 25 305 37 6 1 3 -2 -5 -7z
m485 -17 c115 -10 204 -19 196 -22 -7 -2 -70 1 -139 7 -70 6 -164 14 -209 17
-45 3 -97 10 -115 15 -29 8 -28 8 12 4 25 -2 139 -12 255 -21z m-1130 1 c72
-8 136 -15 144 -15 8 0 12 -3 8 -6 -5 -5 -310 23 -332 31 -23 8 59 4 180 -10z
m1593 10 c-8 -8 -178 -37 -191 -32 -7 2 22 9 63 16 41 7 82 14 90 15 26 6 44
6 38 1z m-1776 -74 c246 -99 343 -140 333 -140 -5 -1 -108 15 -228 33 l-217
34 -70 62 c-39 34 -70 64 -70 67 0 3 29 3 64 0 44 -4 105 -22 188 -56z m2060
-20 l-84 -78 -211 -27 c-117 -15 -228 -30 -247 -33 -53 -8 -32 6 145 97 219
114 237 119 370 119 l110 0 -83 -78z m-1579 62 c-13 -2 -33 -2 -45 0 -13 2 -3
4 22 4 25 0 35 -2 23 -4z m271 -108 c-59 -63 -110 -115 -115 -115 -12 0 -179
185 -169 188 8 3 330 38 373 41 12 1 -19 -39 -89 -114z m535 90 c96 -9 176
-17 178 -19 5 -4 -177 -181 -186 -181 -4 0 -61 50 -126 112 l-119 112 40 -5
c21 -2 118 -11 213 -19z m-1028 -9 c59 -7 116 -20 127 -27 11 -8 41 -38 66
-66 l47 -52 -83 33 c-152 61 -281 116 -286 121 -8 7 10 6 129 -9z m1339 -37
c-41 -22 -86 -45 -100 -50 -22 -9 -21 -6 11 26 36 37 95 64 139 64 18 0 5 -10
-50 -40z m-1480 16 c14 -8 21 -14 15 -14 -5 0 -21 6 -35 14 -14 8 -20 14 -15
14 6 0 21 -6 35 -14z m808 -129 c2 -128 1 -137 -15 -132 -10 3 -61 17 -113 32
-52 14 -96 28 -98 29 -7 6 202 215 212 212 7 -2 12 -52 14 -141z m130 81 c37
-35 86 -81 110 -102 23 -21 42 -41 42 -45 0 -6 -224 -70 -244 -70 -8 0 -8 265
1 273 13 14 26 6 91 -56z m-778 -17 c8 -5 11 -10 5 -10 -5 0 -17 5 -25 10 -8
5 -10 10 -5 10 6 0 17 -5 25 -10z m60 -25 c14 -8 21 -14 15 -14 -5 0 -21 6
-35 14 -14 8 -20 14 -15 14 6 0 21 -6 35 -14z m-159 -50 c122 -19 224 -35 227
-35 3 0 3 -2 0 -5 -5 -5 -451 61 -473 69 -28 11 45 3 246 -29z m269 5 c8 -5
11 -10 5 -10 -5 0 -17 5 -25 10 -8 5 -10 10 -5 10 6 0 17 -5 25 -10z m1460 0
c-19 -5 -64 -11 -100 -14 l-65 -5 75 13 c87 15 146 19 90 6z m-1830 -31 c36
-6 123 -19 194 -29 70 -11 168 -27 217 -36 83 -15 88 -17 78 -36 -16 -30 -180
-258 -186 -258 -7 0 -377 341 -386 357 -10 16 -2 16 83 2z m1545 -9 c-66 -10
-136 -18 -155 -18 -19 0 17 8 80 18 63 9 133 17 155 17 22 0 -14 -8 -80 -17z
m197 -77 c-39 -43 -115 -122 -170 -177 l-100 -99 -46 59 c-25 33 -72 95 -105
139 l-60 80 37 8 c51 11 439 64 481 66 l33 1 -70 -77z m-994 -13 c45 -13 80
-25 78 -27 -5 -6 -187 44 -195 53 -7 8 -2 7 117 -26z m371 26 c-7 -7 -201 -58
-205 -53 -2 2 37 15 88 29 90 25 126 32 117 24z m-381 -65 c52 -15 98 -34 103
-42 11 -18 12 -226 0 -233 -4 -3 -46 52 -93 122 -121 183 -121 182 -112 182 5
0 51 -13 102 -29z m368 4 c-27 -41 -208 -275 -217 -281 -5 -3 -9 46 -9 109 0
94 3 117 16 128 14 11 186 65 218 68 4 1 1 -10 -8 -24z m-549 -32 c3 -16 20
-113 38 -217 l31 -188 -25 -19 c-13 -10 -29 -19 -35 -19 -6 0 -59 48 -118 107
l-106 106 46 63 c26 35 68 93 95 129 26 36 52 65 57 65 5 0 13 -12 17 -27z
m763 -84 c47 -61 91 -119 98 -129 14 -19 11 -23 -178 -183 l-65 -56 -24 24
-25 24 33 178 c40 219 48 253 64 253 7 0 51 -50 97 -111z m-190 -101 c-17 -95
-34 -181 -38 -190 -6 -15 -16 -13 -91 18 -46 18 -86 36 -88 38 -3 2 32 53 78
113 108 142 160 205 166 199 3 -2 -10 -82 -27 -178z m-414 16 c54 -81 93 -149
88 -153 -5 -4 -39 -22 -76 -39 l-67 -30 -5 26 c-3 15 -15 86 -26 157 -11 72
-23 142 -26 158 -11 54 17 25 112 -119z m279 -215 c22 -11 29 -16 15 -13 -14
4 -43 15 -65 25 -22 11 -29 16 -15 13 14 -4 43 -15 65 -25z m-235 1 c-19 -11
-39 -19 -45 -19 -5 0 6 8 25 19 19 11 40 19 45 19 6 0 -6 -8 -25 -19z m221
-37 c38 -15 69 -32 69 -36 0 -5 -24 -43 -53 -85 -29 -43 -71 -103 -93 -134
-21 -32 -41 -57 -44 -57 -7 -1 -155 250 -158 269 -2 12 19 27 73 52 85 40 83
40 206 -9z m84 7 c3 -6 -1 -7 -9 -4 -18 7 -21 14 -7 14 6 0 13 -4 16 -10z
m-409 -88 c8 -10 27 -38 41 -63 l26 -44 -56 54 c-51 50 -62 71 -36 71 5 0 16
-8 25 -18z m424 -35 c-38 -37 -41 -38 -26 -12 21 35 56 68 64 60 4 -3 -14 -25
-38 -48z"/>
</g>
</svg>
