<svg width="145" height="75" viewBox="0 0 145 75" version="1.1" xmlns="http://www.w3.org/2000/svg" xmlns:xlink="http://www.w3.org/1999/xlink">
<g id="Canvas" fill="none">
<g id="Group">
<g id="Canvas_2">
<g id="Vector colors scroll" filter="url(#filter0_dd)">
<g id="Vector">
<path d="M 68.59 1.38803L 69.2738 0.658348L 68.5713 -5.21851e-08L 67.8868 0.677082L 68.59 1.38803ZM 57.2487 12.6064L 56.5455 11.8954L 56.5443 11.8966L 57.2487 12.6064ZM 57.2487 35.2271L 57.9667 35.9232L 58.0293 35.8586L 58.0794 35.7839L 57.2487 35.2271ZM 28.5805 39.6409L 27.9039 38.9045L 27.8934 38.9142L 27.8831 38.9241L 28.5805 39.6409ZM 21.0196 46.9972L 20.3222 46.2804L 20.3163 46.2863L 21.0196 46.9972ZM 2.43246 65.388L 1.72912 64.6771L -6.96564e-08 66.388L 2.43246 66.388L 2.43246 65.388ZM 117.105 46.9972L 117.833 46.3115L 117.806 46.2826L 117.776 46.2561L 117.105 46.9972ZM 134.432 65.388L 134.432 66.388L 136.748 66.388L 135.16 64.7023L 134.432 65.388ZM 81.5351 35.2271L 80.7409 35.8347L 80.7859 35.8935L 80.839 35.945L 81.5351 35.2271ZM 91.5876 21.9857L 92.3022 21.2862L 92.2703 21.2536L 92.2356 21.224L 91.5876 21.9857ZM 67.8868 0.677082L 56.5455 11.8954L 57.952 13.3173L 69.2933 2.09898L 67.8868 0.677082ZM 56.7446 13.47L 60.21 15.493L 61.2183 13.7658L 57.7529 11.7428L 56.7446 13.47ZM 61.5736 15.1406L 69.4495 1.89923L 67.7306 0.876828L 59.8547 14.1182L 61.5736 15.1406ZM 67.9062 2.11771L 79.8776 13.3361L 81.2452 11.8767L 69.2738 0.658348L 67.9062 2.11771ZM 79.9806 11.7924L 77.1452 13.8153L 78.3069 15.4434L 81.1422 13.4204L 79.9806 11.7924ZM 78.5492 14.0615L 69.4131 0.820126L 67.7669 1.95593L 76.903 15.1973L 78.5492 14.0615ZM 77.3526 13.7017L 68.2165 17.3799L 68.9635 19.2352L 78.0995 15.557L 77.3526 13.7017ZM 69.0132 17.4015L 61.1373 13.7233L 60.291 15.5354L 68.1669 19.2136L 69.0132 17.4015ZM 56.5443 11.8966L 47.0932 21.2759L 48.5021 22.6955L 57.9531 13.3162L 56.5443 11.8966ZM 46.9837 22.5667L 56.4348 35.808L 58.0627 34.6461L 48.6116 21.4048L 46.9837 22.5667ZM 58.2349 35.393L 61.7003 14.7953L 59.728 14.4635L 56.2626 35.0612L 58.2349 35.393ZM 67.7594 17.7507L 56.4181 34.6703L 58.0794 35.7839L 69.4207 18.8643L 67.7594 17.7507ZM 57.0966 34.2387L 28.4283 38.6525L 28.7326 40.6292L 57.4009 36.2154L 57.0966 34.2387ZM 29.257 40.3773L 48.4742 22.7221L 47.1211 21.2493L 27.9039 38.9045L 29.257 40.3773ZM 27.8831 38.9241L 20.3223 46.2805L 21.717 47.7139L 29.2778 40.3576L 27.8831 38.9241ZM 21.0196 47.9972L 28.5805 47.9972L 28.5805 45.9972L 21.0196 45.9972L 21.0196 47.9972ZM 28.9603 47.9223L 57.6285 36.1521L 56.8689 34.302L 28.2007 46.0721L 28.9603 47.9223ZM 56.5308 34.531L 47.0797 44.2781L 48.5156 45.6703L 57.9667 35.9232L 56.5308 34.531ZM 47.693 43.9797L 28.4758 46.0027L 28.6852 47.9917L 47.9023 45.9687L 47.693 43.9797ZM 20.3163 46.2863L 1.72912 64.6771L 3.1358 66.0989L 21.723 47.708L 20.3163 46.2863ZM 3.00775 66.2059L 29.1558 47.8151L 28.0052 46.1792L 1.85717 64.5701L 3.00775 66.2059ZM 39.2917 64.388L 2.43246 64.388L 2.43246 66.388L 39.2917 66.388L 39.2917 64.388ZM 46.8705 44.5995L 40.2548 60.9673L 42.109 61.7168L 48.7248 45.3489L 46.8705 44.5995ZM 40.2759 60.9188L 38.3857 64.9647L 40.1977 65.8113L 42.0879 61.7653L 40.2759 60.9188ZM 2.53631 66.3826L 41.2858 62.3366L 41.0781 60.3474L 2.32861 64.3934L 2.53631 66.3826ZM 41.6456 62.228L 69.0537 47.8832L 68.1263 46.1112L 40.7182 60.456L 41.6456 62.228ZM 68.6869 46.0019L 47.8945 43.9789L 47.7008 45.9695L 68.4932 47.9925L 68.6869 46.0019ZM 67.8241 46.3543L 52.3873 64.7451L 53.9192 66.0309L 69.356 47.6401L 67.8241 46.3543ZM 53.1533 64.388L 39.2917 64.388L 39.2917 66.388L 53.1533 66.388L 53.1533 64.388ZM 68.6776 47.9933L 91.6753 45.9704L 91.5 43.9781L 68.5024 46.001L 68.6776 47.9933ZM 91.4291 45.9616L 104.03 47.9846L 104.347 46.0098L 91.7461 43.9869L 91.4291 45.9616ZM 104.189 47.9972L 117.105 47.9972L 117.105 45.9972L 104.189 45.9972L 104.189 47.9972ZM 116.377 47.6829L 133.704 66.0737L 135.16 64.7023L 117.833 46.3115L 116.377 47.6829ZM 134.952 64.5336L 104.708 46.1428L 103.669 47.8516L 133.912 66.2424L 134.952 64.5336ZM 134.432 64.388L 95.3681 64.388L 95.3681 66.388L 134.432 66.388L 134.432 64.388ZM 96.0987 64.7053L 92.3183 60.6593L 90.857 62.0247L 94.6374 66.0707L 96.0987 64.7053ZM 92.1169 60.4935L 69.1193 46.1487L 68.0608 47.8457L 91.0584 62.1905L 92.1169 60.4935ZM 91.4936 62.3376L 134.338 66.3836L 134.526 64.3924L 91.6816 60.3465L 91.4936 62.3376ZM 90.5876 44.9742L 90.5876 61.342L 92.5876 61.342L 92.5876 44.9742L 90.5876 44.9742ZM 92.2837 44.2563L 82.2312 34.5092L 80.839 35.945L 90.8915 45.6921L 92.2837 44.2563ZM 82.5185 35.0452L 78.7094 14.4475L 76.7427 14.8112L 80.5518 35.4089L 82.5185 35.0452ZM 67.7958 18.9152L 80.7409 35.8347L 82.3293 34.6194L 69.3842 17.6999L 67.7958 18.9152ZM 82.3316 35.8317L 92.3841 22.5904L 90.7911 21.381L 80.7386 34.6224L 82.3316 35.8317ZM 92.2356 21.224L 81.2093 11.8447L 79.9134 13.3681L 90.9397 22.7474L 92.2356 21.224ZM 90.873 22.6852L 107.254 39.4208L 108.684 38.0218L 92.3022 21.2862L 90.873 22.6852ZM 108.1 37.73L 81.6662 34.2357L 81.4041 36.2185L 107.838 39.7127L 108.1 37.73ZM 107.298 39.4625L 116.434 47.7383L 117.776 46.2561L 108.64 37.9802L 107.298 39.4625ZM 104.65 46.1098L 81.9962 34.3397L 81.0741 36.1145L 103.728 47.8846L 104.65 46.1098ZM 53.1533 66.388L 77.7261 66.388L 77.7261 64.388L 53.1533 64.388L 53.1533 66.388ZM 77.7261 66.388L 95.3681 66.388L 95.3681 64.388L 77.7261 64.388L 77.7261 66.388ZM 67.6944 47.4421L 76.8305 65.8329L 78.6216 64.9431L 69.4856 46.5523L 67.6944 47.4421Z" transform="translate(4 66.388) scale(1 -1)" fill="#5F4B8B"/>
</g>
<g id="Vector_2">
<path d="M 68.59 1.38803L 69.2738 0.658348L 68.5713 -5.21851e-08L 67.8868 0.677082L 68.59 1.38803ZM 57.2487 12.6064L 56.5455 11.8954L 56.5443 11.8966L 57.2487 12.6064ZM 57.2487 35.2271L 57.9667 35.9232L 58.0293 35.8586L 58.0794 35.7839L 57.2487 35.2271ZM 28.5805 39.6409L 27.9039 38.9045L 27.8934 38.9142L 27.8831 38.9241L 28.5805 39.6409ZM 21.0196 46.9972L 20.3222 46.2804L 20.3163 46.2863L 21.0196 46.9972ZM 2.43246 65.388L 1.72912 64.6771L -6.96564e-08 66.388L 2.43246 66.388L 2.43246 65.388ZM 117.105 46.9972L 117.833 46.3115L 117.806 46.2826L 117.776 46.2561L 117.105 46.9972ZM 134.432 65.388L 134.432 66.388L 136.748 66.388L 135.16 64.7023L 134.432 65.388ZM 81.5351 35.2271L 80.7409 35.8347L 80.7859 35.8935L 80.839 35.945L 81.5351 35.2271ZM 91.5876 21.9857L 92.3022 21.2862L 92.2703 21.2536L 92.2356 21.224L 91.5876 21.9857ZM 67.8868 0.677082L 56.5455 11.8954L 57.952 13.3173L 69.2933 2.09898L 67.8868 0.677082ZM 56.7446 13.47L 60.21 15.493L 61.2183 13.7658L 57.7529 11.7428L 56.7446 13.47ZM 61.5736 15.1406L 69.4495 1.89923L 67.7306 0.876828L 59.8547 14.1182L 61.5736 15.1406ZM 67.9062 2.11771L 79.8776 13.3361L 81.2452 11.8767L 69.2738 0.658348L 67.9062 2.11771ZM 79.9806 11.7924L 77.1452 13.8153L 78.3069 15.4434L 81.1422 13.4204L 79.9806 11.7924ZM 78.5492 14.0615L 69.4131 0.820126L 67.7669 1.95593L 76.903 15.1973L 78.5492 14.0615ZM 77.3526 13.7017L 68.2165 17.3799L 68.9635 19.2352L 78.0995 15.557L 77.3526 13.7017ZM 69.0132 17.4015L 61.1373 13.7233L 60.291 15.5354L 68.1669 19.2136L 69.0132 17.4015ZM 56.5443 11.8966L 47.0932 21.2759L 48.5021 22.6955L 57.9531 13.3162L 56.5443 11.8966ZM 46.9837 22.5667L 56.4348 35.808L 58.0627 34.6461L 48.6116 21.4048L 46.9837 22.5667ZM 58.2349 35.393L 61.7003 14.7953L 59.728 14.4635L 56.2626 35.0612L 58.2349 35.393ZM 67.7594 17.7507L 56.4181 34.6703L 58.0794 35.7839L 69.4207 18.8643L 67.7594 17.7507ZM 57.0966 34.2387L 28.4283 38.6525L 28.7326 40.6292L 57.4009 36.2154L 57.0966 34.2387ZM 29.257 40.3773L 48.4742 22.7221L 47.1211 21.2493L 27.9039 38.9045L 29.257 40.3773ZM 27.8831 38.9241L 20.3223 46.2805L 21.717 47.7139L 29.2778 40.3576L 27.8831 38.9241ZM 21.0196 47.9972L 28.5805 47.9972L 28.5805 45.9972L 21.0196 45.9972L 21.0196 47.9972ZM 28.9603 47.9223L 57.6285 36.1521L 56.8689 34.302L 28.2007 46.0721L 28.9603 47.9223ZM 56.5308 34.531L 47.0797 44.2781L 48.5156 45.6703L 57.9667 35.9232L 56.5308 34.531ZM 47.693 43.9797L 28.4758 46.0027L 28.6852 47.9917L 47.9023 45.9687L 47.693 43.9797ZM 20.3163 46.2863L 1.72912 64.6771L 3.1358 66.0989L 21.723 47.708L 20.3163 46.2863ZM 3.00775 66.2059L 29.1558 47.8151L 28.0052 46.1792L 1.85717 64.5701L 3.00775 66.2059ZM 39.2917 64.388L 2.43246 64.388L 2.43246 66.388L 39.2917 66.388L 39.2917 64.388ZM 46.8705 44.5995L 40.2548 60.9673L 42.109 61.7168L 48.7248 45.3489L 46.8705 44.5995ZM 40.2759 60.9188L 38.3857 64.9647L 40.1977 65.8113L 42.0879 61.7653L 40.2759 60.9188ZM 2.53631 66.3826L 41.2858 62.3366L 41.0781 60.3474L 2.32861 64.3934L 2.53631 66.3826ZM 41.6456 62.228L 69.0537 47.8832L 68.1263 46.1112L 40.7182 60.456L 41.6456 62.228ZM 68.6869 46.0019L 47.8945 43.9789L 47.7008 45.9695L 68.4932 47.9925L 68.6869 46.0019ZM 67.8241 46.3543L 52.3873 64.7451L 53.9192 66.0309L 69.356 47.6401L 67.8241 46.3543ZM 53.1533 64.388L 39.2917 64.388L 39.2917 66.388L 53.1533 66.388L 53.1533 64.388ZM 68.6776 47.9933L 91.6753 45.9704L 91.5 43.9781L 68.5024 46.001L 68.6776 47.9933ZM 91.4291 45.9616L 104.03 47.9846L 104.347 46.0098L 91.7461 43.9869L 91.4291 45.9616ZM 104.189 47.9972L 117.105 47.9972L 117.105 45.9972L 104.189 45.9972L 104.189 47.9972ZM 116.377 47.6829L 133.704 66.0737L 135.16 64.7023L 117.833 46.3115L 116.377 47.6829ZM 134.952 64.5336L 104.708 46.1428L 103.669 47.8516L 133.912 66.2424L 134.952 64.5336ZM 134.432 64.388L 95.3681 64.388L 95.3681 66.388L 134.432 66.388L 134.432 64.388ZM 96.0987 64.7053L 92.3183 60.6593L 90.857 62.0247L 94.6374 66.0707L 96.0987 64.7053ZM 92.1169 60.4935L 69.1193 46.1487L 68.0608 47.8457L 91.0584 62.1905L 92.1169 60.4935ZM 91.4936 62.3376L 134.338 66.3836L 134.526 64.3924L 91.6816 60.3465L 91.4936 62.3376ZM 90.5876 44.9742L 90.5876 61.342L 92.5876 61.342L 92.5876 44.9742L 90.5876 44.9742ZM 92.2837 44.2563L 82.2312 34.5092L 80.839 35.945L 90.8915 45.6921L 92.2837 44.2563ZM 82.5185 35.0452L 78.7094 14.4475L 76.7427 14.8112L 80.5518 35.4089L 82.5185 35.0452ZM 67.7958 18.9152L 80.7409 35.8347L 82.3293 34.6194L 69.3842 17.6999L 67.7958 18.9152ZM 82.3316 35.8317L 92.3841 22.5904L 90.7911 21.381L 80.7386 34.6224L 82.3316 35.8317ZM 92.2356 21.224L 81.2093 11.8447L 79.9134 13.3681L 90.9397 22.7474L 92.2356 21.224ZM 90.873 22.6852L 107.254 39.4208L 108.684 38.0218L 92.3022 21.2862L 90.873 22.6852ZM 108.1 37.73L 81.6662 34.2357L 81.4041 36.2185L 107.838 39.7127L 108.1 37.73ZM 107.298 39.4625L 116.434 47.7383L 117.776 46.2561L 108.64 37.9802L 107.298 39.4625ZM 104.65 46.1098L 81.9962 34.3397L 81.0741 36.1145L 103.728 47.8846L 104.65 46.1098ZM 53.1533 66.388L 77.7261 66.388L 77.7261 64.388L 53.1533 64.388L 53.1533 66.388ZM 77.7261 66.388L 95.3681 66.388L 95.3681 64.388L 77.7261 64.388L 77.7261 66.388ZM 67.6944 47.4421L 76.8305 65.8329L 78.6216 64.9431L 69.4856 46.5523L 67.6944 47.4421Z" transform="translate(4 66.388) scale(1 -1)" fill="url(#paint0_linear)"/>
</g>
<g id="Vector_3">
<path d="M 68.59 1.38803L 69.2738 0.658348L 68.5713 -5.21851e-08L 67.8868 0.677082L 68.59 1.38803ZM 57.2487 12.6064L 56.5455 11.8954L 56.5443 11.8966L 57.2487 12.6064ZM 57.2487 35.2271L 57.9667 35.9232L 58.0293 35.8586L 58.0794 35.7839L 57.2487 35.2271ZM 28.5805 39.6409L 27.9039 38.9045L 27.8934 38.9142L 27.8831 38.9241L 28.5805 39.6409ZM 21.0196 46.9972L 20.3222 46.2804L 20.3163 46.2863L 21.0196 46.9972ZM 2.43246 65.388L 1.72912 64.6771L -6.96564e-08 66.388L 2.43246 66.388L 2.43246 65.388ZM 117.105 46.9972L 117.833 46.3115L 117.806 46.2826L 117.776 46.2561L 117.105 46.9972ZM 134.432 65.388L 134.432 66.388L 136.748 66.388L 135.16 64.7023L 134.432 65.388ZM 81.5351 35.2271L 80.7409 35.8347L 80.7859 35.8935L 80.839 35.945L 81.5351 35.2271ZM 91.5876 21.9857L 92.3022 21.2862L 92.2703 21.2536L 92.2356 21.224L 91.5876 21.9857ZM 67.8868 0.677082L 56.5455 11.8954L 57.952 13.3173L 69.2933 2.09898L 67.8868 0.677082ZM 56.7446 13.47L 60.21 15.493L 61.2183 13.7658L 57.7529 11.7428L 56.7446 13.47ZM 61.5736 15.1406L 69.4495 1.89923L 67.7306 0.876828L 59.8547 14.1182L 61.5736 15.1406ZM 67.9062 2.11771L 79.8776 13.3361L 81.2452 11.8767L 69.2738 0.658348L 67.9062 2.11771ZM 79.9806 11.7924L 77.1452 13.8153L 78.3069 15.4434L 81.1422 13.4204L 79.9806 11.7924ZM 78.5492 14.0615L 69.4131 0.820126L 67.7669 1.95593L 76.903 15.1973L 78.5492 14.0615ZM 77.3526 13.7017L 68.2165 17.3799L 68.9635 19.2352L 78.0995 15.557L 77.3526 13.7017ZM 69.0132 17.4015L 61.1373 13.7233L 60.291 15.5354L 68.1669 19.2136L 69.0132 17.4015ZM 56.5443 11.8966L 47.0932 21.2759L 48.5021 22.6955L 57.9531 13.3162L 56.5443 11.8966ZM 46.9837 22.5667L 56.4348 35.808L 58.0627 34.6461L 48.6116 21.4048L 46.9837 22.5667ZM 58.2349 35.393L 61.7003 14.7953L 59.728 14.4635L 56.2626 35.0612L 58.2349 35.393ZM 67.7594 17.7507L 56.4181 34.6703L 58.0794 35.7839L 69.4207 18.8643L 67.7594 17.7507ZM 57.0966 34.2387L 28.4283 38.6525L 28.7326 40.6292L 57.4009 36.2154L 57.0966 34.2387ZM 29.257 40.3773L 48.4742 22.7221L 47.1211 21.2493L 27.9039 38.9045L 29.257 40.3773ZM 27.8831 38.9241L 20.3223 46.2805L 21.717 47.7139L 29.2778 40.3576L 27.8831 38.9241ZM 21.0196 47.9972L 28.5805 47.9972L 28.5805 45.9972L 21.0196 45.9972L 21.0196 47.9972ZM 28.9603 47.9223L 57.6285 36.1521L 56.8689 34.302L 28.2007 46.0721L 28.9603 47.9223ZM 56.5308 34.531L 47.0797 44.2781L 48.5156 45.6703L 57.9667 35.9232L 56.5308 34.531ZM 47.693 43.9797L 28.4758 46.0027L 28.6852 47.9917L 47.9023 45.9687L 47.693 43.9797ZM 20.3163 46.2863L 1.72912 64.6771L 3.1358 66.0989L 21.723 47.708L 20.3163 46.2863ZM 3.00775 66.2059L 29.1558 47.8151L 28.0052 46.1792L 1.85717 64.5701L 3.00775 66.2059ZM 39.2917 64.388L 2.43246 64.388L 2.43246 66.388L 39.2917 66.388L 39.2917 64.388ZM 46.8705 44.5995L 40.2548 60.9673L 42.109 61.7168L 48.7248 45.3489L 46.8705 44.5995ZM 40.2759 60.9188L 38.3857 64.9647L 40.1977 65.8113L 42.0879 61.7653L 40.2759 60.9188ZM 2.53631 66.3826L 41.2858 62.3366L 41.0781 60.3474L 2.32861 64.3934L 2.53631 66.3826ZM 41.6456 62.228L 69.0537 47.8832L 68.1263 46.1112L 40.7182 60.456L 41.6456 62.228ZM 68.6869 46.0019L 47.8945 43.9789L 47.7008 45.9695L 68.4932 47.9925L 68.6869 46.0019ZM 67.8241 46.3543L 52.3873 64.7451L 53.9192 66.0309L 69.356 47.6401L 67.8241 46.3543ZM 53.1533 64.388L 39.2917 64.388L 39.2917 66.388L 53.1533 66.388L 53.1533 64.388ZM 68.6776 47.9933L 91.6753 45.9704L 91.5 43.9781L 68.5024 46.001L 68.6776 47.9933ZM 91.4291 45.9616L 104.03 47.9846L 104.347 46.0098L 91.7461 43.9869L 91.4291 45.9616ZM 104.189 47.9972L 117.105 47.9972L 117.105 45.9972L 104.189 45.9972L 104.189 47.9972ZM 116.377 47.6829L 133.704 66.0737L 135.16 64.7023L 117.833 46.3115L 116.377 47.6829ZM 134.952 64.5336L 104.708 46.1428L 103.669 47.8516L 133.912 66.2424L 134.952 64.5336ZM 134.432 64.388L 95.3681 64.388L 95.3681 66.388L 134.432 66.388L 134.432 64.388ZM 96.0987 64.7053L 92.3183 60.6593L 90.857 62.0247L 94.6374 66.0707L 96.0987 64.7053ZM 92.1169 60.4935L 69.1193 46.1487L 68.0608 47.8457L 91.0584 62.1905L 92.1169 60.4935ZM 91.4936 62.3376L 134.338 66.3836L 134.526 64.3924L 91.6816 60.3465L 91.4936 62.3376ZM 90.5876 44.9742L 90.5876 61.342L 92.5876 61.342L 92.5876 44.9742L 90.5876 44.9742ZM 92.2837 44.2563L 82.2312 34.5092L 80.839 35.945L 90.8915 45.6921L 92.2837 44.2563ZM 82.5185 35.0452L 78.7094 14.4475L 76.7427 14.8112L 80.5518 35.4089L 82.5185 35.0452ZM 67.7958 18.9152L 80.7409 35.8347L 82.3293 34.6194L 69.3842 17.6999L 67.7958 18.9152ZM 82.3316 35.8317L 92.3841 22.5904L 90.7911 21.381L 80.7386 34.6224L 82.3316 35.8317ZM 92.2356 21.224L 81.2093 11.8447L 79.9134 13.3681L 90.9397 22.7474L 92.2356 21.224ZM 90.873 22.6852L 107.254 39.4208L 108.684 38.0218L 92.3022 21.2862L 90.873 22.6852ZM 108.1 37.73L 81.6662 34.2357L 81.4041 36.2185L 107.838 39.7127L 108.1 37.73ZM 107.298 39.4625L 116.434 47.7383L 117.776 46.2561L 108.64 37.9802L 107.298 39.4625ZM 104.65 46.1098L 81.9962 34.3397L 81.0741 36.1145L 103.728 47.8846L 104.65 46.1098ZM 53.1533 66.388L 77.7261 66.388L 77.7261 64.388L 53.1533 64.388L 53.1533 66.388ZM 77.7261 66.388L 95.3681 66.388L 95.3681 64.388L 77.7261 64.388L 77.7261 66.388ZM 67.6944 47.4421L 76.8305 65.8329L 78.6216 64.9431L 69.4856 46.5523L 67.6944 47.4421Z" transform="translate(4 66.388) scale(1 -1)" fill="url(#paint1_linear)"/>
</g>
<g id="Vector_4">
<path d="M 68.59 1.38803L 69.2738 0.658348L 68.5713 -5.21851e-08L 67.8868 0.677082L 68.59 1.38803ZM 57.2487 12.6064L 56.5455 11.8954L 56.5443 11.8966L 57.2487 12.6064ZM 57.2487 35.2271L 57.9667 35.9232L 58.0293 35.8586L 58.0794 35.7839L 57.2487 35.2271ZM 28.5805 39.6409L 27.9039 38.9045L 27.8934 38.9142L 27.8831 38.9241L 28.5805 39.6409ZM 21.0196 46.9972L 20.3222 46.2804L 20.3163 46.2863L 21.0196 46.9972ZM 2.43246 65.388L 1.72912 64.6771L -6.96564e-08 66.388L 2.43246 66.388L 2.43246 65.388ZM 117.105 46.9972L 117.833 46.3115L 117.806 46.2826L 117.776 46.2561L 117.105 46.9972ZM 134.432 65.388L 134.432 66.388L 136.748 66.388L 135.16 64.7023L 134.432 65.388ZM 81.5351 35.2271L 80.7409 35.8347L 80.7859 35.8935L 80.839 35.945L 81.5351 35.2271ZM 91.5876 21.9857L 92.3022 21.2862L 92.2703 21.2536L 92.2356 21.224L 91.5876 21.9857ZM 67.8868 0.677082L 56.5455 11.8954L 57.952 13.3173L 69.2933 2.09898L 67.8868 0.677082ZM 56.7446 13.47L 60.21 15.493L 61.2183 13.7658L 57.7529 11.7428L 56.7446 13.47ZM 61.5736 15.1406L 69.4495 1.89923L 67.7306 0.876828L 59.8547 14.1182L 61.5736 15.1406ZM 67.9062 2.11771L 79.8776 13.3361L 81.2452 11.8767L 69.2738 0.658348L 67.9062 2.11771ZM 79.9806 11.7924L 77.1452 13.8153L 78.3069 15.4434L 81.1422 13.4204L 79.9806 11.7924ZM 78.5492 14.0615L 69.4131 0.820126L 67.7669 1.95593L 76.903 15.1973L 78.5492 14.0615ZM 77.3526 13.7017L 68.2165 17.3799L 68.9635 19.2352L 78.0995 15.557L 77.3526 13.7017ZM 69.0132 17.4015L 61.1373 13.7233L 60.291 15.5354L 68.1669 19.2136L 69.0132 17.4015ZM 56.5443 11.8966L 47.0932 21.2759L 48.5021 22.6955L 57.9531 13.3162L 56.5443 11.8966ZM 46.9837 22.5667L 56.4348 35.808L 58.0627 34.6461L 48.6116 21.4048L 46.9837 22.5667ZM 58.2349 35.393L 61.7003 14.7953L 59.728 14.4635L 56.2626 35.0612L 58.2349 35.393ZM 67.7594 17.7507L 56.4181 34.6703L 58.0794 35.7839L 69.4207 18.8643L 67.7594 17.7507ZM 57.0966 34.2387L 28.4283 38.6525L 28.7326 40.6292L 57.4009 36.2154L 57.0966 34.2387ZM 29.257 40.3773L 48.4742 22.7221L 47.1211 21.2493L 27.9039 38.9045L 29.257 40.3773ZM 27.8831 38.9241L 20.3223 46.2805L 21.717 47.7139L 29.2778 40.3576L 27.8831 38.9241ZM 21.0196 47.9972L 28.5805 47.9972L 28.5805 45.9972L 21.0196 45.9972L 21.0196 47.9972ZM 28.9603 47.9223L 57.6285 36.1521L 56.8689 34.302L 28.2007 46.0721L 28.9603 47.9223ZM 56.5308 34.531L 47.0797 44.2781L 48.5156 45.6703L 57.9667 35.9232L 56.5308 34.531ZM 47.693 43.9797L 28.4758 46.0027L 28.6852 47.9917L 47.9023 45.9687L 47.693 43.9797ZM 20.3163 46.2863L 1.72912 64.6771L 3.1358 66.0989L 21.723 47.708L 20.3163 46.2863ZM 3.00775 66.2059L 29.1558 47.8151L 28.0052 46.1792L 1.85717 64.5701L 3.00775 66.2059ZM 39.2917 64.388L 2.43246 64.388L 2.43246 66.388L 39.2917 66.388L 39.2917 64.388ZM 46.8705 44.5995L 40.2548 60.9673L 42.109 61.7168L 48.7248 45.3489L 46.8705 44.5995ZM 40.2759 60.9188L 38.3857 64.9647L 40.1977 65.8113L 42.0879 61.7653L 40.2759 60.9188ZM 2.53631 66.3826L 41.2858 62.3366L 41.0781 60.3474L 2.32861 64.3934L 2.53631 66.3826ZM 41.6456 62.228L 69.0537 47.8832L 68.1263 46.1112L 40.7182 60.456L 41.6456 62.228ZM 68.6869 46.0019L 47.8945 43.9789L 47.7008 45.9695L 68.4932 47.9925L 68.6869 46.0019ZM 67.8241 46.3543L 52.3873 64.7451L 53.9192 66.0309L 69.356 47.6401L 67.8241 46.3543ZM 53.1533 64.388L 39.2917 64.388L 39.2917 66.388L 53.1533 66.388L 53.1533 64.388ZM 68.6776 47.9933L 91.6753 45.9704L 91.5 43.9781L 68.5024 46.001L 68.6776 47.9933ZM 91.4291 45.9616L 104.03 47.9846L 104.347 46.0098L 91.7461 43.9869L 91.4291 45.9616ZM 104.189 47.9972L 117.105 47.9972L 117.105 45.9972L 104.189 45.9972L 104.189 47.9972ZM 116.377 47.6829L 133.704 66.0737L 135.16 64.7023L 117.833 46.3115L 116.377 47.6829ZM 134.952 64.5336L 104.708 46.1428L 103.669 47.8516L 133.912 66.2424L 134.952 64.5336ZM 134.432 64.388L 95.3681 64.388L 95.3681 66.388L 134.432 66.388L 134.432 64.388ZM 96.0987 64.7053L 92.3183 60.6593L 90.857 62.0247L 94.6374 66.0707L 96.0987 64.7053ZM 92.1169 60.4935L 69.1193 46.1487L 68.0608 47.8457L 91.0584 62.1905L 92.1169 60.4935ZM 91.4936 62.3376L 134.338 66.3836L 134.526 64.3924L 91.6816 60.3465L 91.4936 62.3376ZM 90.5876 44.9742L 90.5876 61.342L 92.5876 61.342L 92.5876 44.9742L 90.5876 44.9742ZM 92.2837 44.2563L 82.2312 34.5092L 80.839 35.945L 90.8915 45.6921L 92.2837 44.2563ZM 82.5185 35.0452L 78.7094 14.4475L 76.7427 14.8112L 80.5518 35.4089L 82.5185 35.0452ZM 67.7958 18.9152L 80.7409 35.8347L 82.3293 34.6194L 69.3842 17.6999L 67.7958 18.9152ZM 82.3316 35.8317L 92.3841 22.5904L 90.7911 21.381L 80.7386 34.6224L 82.3316 35.8317ZM 92.2356 21.224L 81.2093 11.8447L 79.9134 13.3681L 90.9397 22.7474L 92.2356 21.224ZM 90.873 22.6852L 107.254 39.4208L 108.684 38.0218L 92.3022 21.2862L 90.873 22.6852ZM 108.1 37.73L 81.6662 34.2357L 81.4041 36.2185L 107.838 39.7127L 108.1 37.73ZM 107.298 39.4625L 116.434 47.7383L 117.776 46.2561L 108.64 37.9802L 107.298 39.4625ZM 104.65 46.1098L 81.9962 34.3397L 81.0741 36.1145L 103.728 47.8846L 104.65 46.1098ZM 53.1533 66.388L 77.7261 66.388L 77.7261 64.388L 53.1533 64.388L 53.1533 66.388ZM 77.7261 66.388L 95.3681 66.388L 95.3681 64.388L 77.7261 64.388L 77.7261 66.388ZM 67.6944 47.4421L 76.8305 65.8329L 78.6216 64.9431L 69.4856 46.5523L 67.6944 47.4421Z" transform="translate(4 66.388) scale(1 -1)" fill="url(#paint2_linear)"/>
</g>
<g id="Vector_5">
<path d="M 68.59 1.38803L 69.2738 0.658348L 68.5713 -5.21851e-08L 67.8868 0.677082L 68.59 1.38803ZM 57.2487 12.6064L 56.5455 11.8954L 56.5443 11.8966L 57.2487 12.6064ZM 57.2487 35.2271L 57.9667 35.9232L 58.0293 35.8586L 58.0794 35.7839L 57.2487 35.2271ZM 28.5805 39.6409L 27.9039 38.9045L 27.8934 38.9142L 27.8831 38.9241L 28.5805 39.6409ZM 21.0196 46.9972L 20.3222 46.2804L 20.3163 46.2863L 21.0196 46.9972ZM 2.43246 65.388L 1.72912 64.6771L -6.96564e-08 66.388L 2.43246 66.388L 2.43246 65.388ZM 117.105 46.9972L 117.833 46.3115L 117.806 46.2826L 117.776 46.2561L 117.105 46.9972ZM 134.432 65.388L 134.432 66.388L 136.748 66.388L 135.16 64.7023L 134.432 65.388ZM 81.5351 35.2271L 80.7409 35.8347L 80.7859 35.8935L 80.839 35.945L 81.5351 35.2271ZM 91.5876 21.9857L 92.3022 21.2862L 92.2703 21.2536L 92.2356 21.224L 91.5876 21.9857ZM 67.8868 0.677082L 56.5455 11.8954L 57.952 13.3173L 69.2933 2.09898L 67.8868 0.677082ZM 56.7446 13.47L 60.21 15.493L 61.2183 13.7658L 57.7529 11.7428L 56.7446 13.47ZM 61.5736 15.1406L 69.4495 1.89923L 67.7306 0.876828L 59.8547 14.1182L 61.5736 15.1406ZM 67.9062 2.11771L 79.8776 13.3361L 81.2452 11.8767L 69.2738 0.658348L 67.9062 2.11771ZM 79.9806 11.7924L 77.1452 13.8153L 78.3069 15.4434L 81.1422 13.4204L 79.9806 11.7924ZM 78.5492 14.0615L 69.4131 0.820126L 67.7669 1.95593L 76.903 15.1973L 78.5492 14.0615ZM 77.3526 13.7017L 68.2165 17.3799L 68.9635 19.2352L 78.0995 15.557L 77.3526 13.7017ZM 69.0132 17.4015L 61.1373 13.7233L 60.291 15.5354L 68.1669 19.2136L 69.0132 17.4015ZM 56.5443 11.8966L 47.0932 21.2759L 48.5021 22.6955L 57.9531 13.3162L 56.5443 11.8966ZM 46.9837 22.5667L 56.4348 35.808L 58.0627 34.6461L 48.6116 21.4048L 46.9837 22.5667ZM 58.2349 35.393L 61.7003 14.7953L 59.728 14.4635L 56.2626 35.0612L 58.2349 35.393ZM 67.7594 17.7507L 56.4181 34.6703L 58.0794 35.7839L 69.4207 18.8643L 67.7594 17.7507ZM 57.0966 34.2387L 28.4283 38.6525L 28.7326 40.6292L 57.4009 36.2154L 57.0966 34.2387ZM 29.257 40.3773L 48.4742 22.7221L 47.1211 21.2493L 27.9039 38.9045L 29.257 40.3773ZM 27.8831 38.9241L 20.3223 46.2805L 21.717 47.7139L 29.2778 40.3576L 27.8831 38.9241ZM 21.0196 47.9972L 28.5805 47.9972L 28.5805 45.9972L 21.0196 45.9972L 21.0196 47.9972ZM 28.9603 47.9223L 57.6285 36.1521L 56.8689 34.302L 28.2007 46.0721L 28.9603 47.9223ZM 56.5308 34.531L 47.0797 44.2781L 48.5156 45.6703L 57.9667 35.9232L 56.5308 34.531ZM 47.693 43.9797L 28.4758 46.0027L 28.6852 47.9917L 47.9023 45.9687L 47.693 43.9797ZM 20.3163 46.2863L 1.72912 64.6771L 3.1358 66.0989L 21.723 47.708L 20.3163 46.2863ZM 3.00775 66.2059L 29.1558 47.8151L 28.0052 46.1792L 1.85717 64.5701L 3.00775 66.2059ZM 39.2917 64.388L 2.43246 64.388L 2.43246 66.388L 39.2917 66.388L 39.2917 64.388ZM 46.8705 44.5995L 40.2548 60.9673L 42.109 61.7168L 48.7248 45.3489L 46.8705 44.5995ZM 40.2759 60.9188L 38.3857 64.9647L 40.1977 65.8113L 42.0879 61.7653L 40.2759 60.9188ZM 2.53631 66.3826L 41.2858 62.3366L 41.0781 60.3474L 2.32861 64.3934L 2.53631 66.3826ZM 41.6456 62.228L 69.0537 47.8832L 68.1263 46.1112L 40.7182 60.456L 41.6456 62.228ZM 68.6869 46.0019L 47.8945 43.9789L 47.7008 45.9695L 68.4932 47.9925L 68.6869 46.0019ZM 67.8241 46.3543L 52.3873 64.7451L 53.9192 66.0309L 69.356 47.6401L 67.8241 46.3543ZM 53.1533 64.388L 39.2917 64.388L 39.2917 66.388L 53.1533 66.388L 53.1533 64.388ZM 68.6776 47.9933L 91.6753 45.9704L 91.5 43.9781L 68.5024 46.001L 68.6776 47.9933ZM 91.4291 45.9616L 104.03 47.9846L 104.347 46.0098L 91.7461 43.9869L 91.4291 45.9616ZM 104.189 47.9972L 117.105 47.9972L 117.105 45.9972L 104.189 45.9972L 104.189 47.9972ZM 116.377 47.6829L 133.704 66.0737L 135.16 64.7023L 117.833 46.3115L 116.377 47.6829ZM 134.952 64.5336L 104.708 46.1428L 103.669 47.8516L 133.912 66.2424L 134.952 64.5336ZM 134.432 64.388L 95.3681 64.388L 95.3681 66.388L 134.432 66.388L 134.432 64.388ZM 96.0987 64.7053L 92.3183 60.6593L 90.857 62.0247L 94.6374 66.0707L 96.0987 64.7053ZM 92.1169 60.4935L 69.1193 46.1487L 68.0608 47.8457L 91.0584 62.1905L 92.1169 60.4935ZM 91.4936 62.3376L 134.338 66.3836L 134.526 64.3924L 91.6816 60.3465L 91.4936 62.3376ZM 90.5876 44.9742L 90.5876 61.342L 92.5876 61.342L 92.5876 44.9742L 90.5876 44.9742ZM 92.2837 44.2563L 82.2312 34.5092L 80.839 35.945L 90.8915 45.6921L 92.2837 44.2563ZM 82.5185 35.0452L 78.7094 14.4475L 76.7427 14.8112L 80.5518 35.4089L 82.5185 35.0452ZM 67.7958 18.9152L 80.7409 35.8347L 82.3293 34.6194L 69.3842 17.6999L 67.7958 18.9152ZM 82.3316 35.8317L 92.3841 22.5904L 90.7911 21.381L 80.7386 34.6224L 82.3316 35.8317ZM 92.2356 21.224L 81.2093 11.8447L 79.9134 13.3681L 90.9397 22.7474L 92.2356 21.224ZM 90.873 22.6852L 107.254 39.4208L 108.684 38.0218L 92.3022 21.2862L 90.873 22.6852ZM 108.1 37.73L 81.6662 34.2357L 81.4041 36.2185L 107.838 39.7127L 108.1 37.73ZM 107.298 39.4625L 116.434 47.7383L 117.776 46.2561L 108.64 37.9802L 107.298 39.4625ZM 104.65 46.1098L 81.9962 34.3397L 81.0741 36.1145L 103.728 47.8846L 104.65 46.1098ZM 53.1533 66.388L 77.7261 66.388L 77.7261 64.388L 53.1533 64.388L 53.1533 66.388ZM 77.7261 66.388L 95.3681 66.388L 95.3681 64.388L 77.7261 64.388L 77.7261 66.388ZM 67.6944 47.4421L 76.8305 65.8329L 78.6216 64.9431L 69.4856 46.5523L 67.6944 47.4421Z" transform="translate(4 66.388) scale(1 -1)" fill="url(#paint3_linear)"/>
</g>
<g id="Vector_6">
<path d="M 68.59 1.38803L 69.2738 0.658348L 68.5713 -5.21851e-08L 67.8868 0.677082L 68.59 1.38803ZM 57.2487 12.6064L 56.5455 11.8954L 56.5443 11.8966L 57.2487 12.6064ZM 57.2487 35.2271L 57.9667 35.9232L 58.0293 35.8586L 58.0794 35.7839L 57.2487 35.2271ZM 28.5805 39.6409L 27.9039 38.9045L 27.8934 38.9142L 27.8831 38.9241L 28.5805 39.6409ZM 21.0196 46.9972L 20.3222 46.2804L 20.3163 46.2863L 21.0196 46.9972ZM 2.43246 65.388L 1.72912 64.6771L -6.96564e-08 66.388L 2.43246 66.388L 2.43246 65.388ZM 117.105 46.9972L 117.833 46.3115L 117.806 46.2826L 117.776 46.2561L 117.105 46.9972ZM 134.432 65.388L 134.432 66.388L 136.748 66.388L 135.16 64.7023L 134.432 65.388ZM 81.5351 35.2271L 80.7409 35.8347L 80.7859 35.8935L 80.839 35.945L 81.5351 35.2271ZM 91.5876 21.9857L 92.3022 21.2862L 92.2703 21.2536L 92.2356 21.224L 91.5876 21.9857ZM 67.8868 0.677082L 56.5455 11.8954L 57.952 13.3173L 69.2933 2.09898L 67.8868 0.677082ZM 56.7446 13.47L 60.21 15.493L 61.2183 13.7658L 57.7529 11.7428L 56.7446 13.47ZM 61.5736 15.1406L 69.4495 1.89923L 67.7306 0.876828L 59.8547 14.1182L 61.5736 15.1406ZM 67.9062 2.11771L 79.8776 13.3361L 81.2452 11.8767L 69.2738 0.658348L 67.9062 2.11771ZM 79.9806 11.7924L 77.1452 13.8153L 78.3069 15.4434L 81.1422 13.4204L 79.9806 11.7924ZM 78.5492 14.0615L 69.4131 0.820126L 67.7669 1.95593L 76.903 15.1973L 78.5492 14.0615ZM 77.3526 13.7017L 68.2165 17.3799L 68.9635 19.2352L 78.0995 15.557L 77.3526 13.7017ZM 69.0132 17.4015L 61.1373 13.7233L 60.291 15.5354L 68.1669 19.2136L 69.0132 17.4015ZM 56.5443 11.8966L 47.0932 21.2759L 48.5021 22.6955L 57.9531 13.3162L 56.5443 11.8966ZM 46.9837 22.5667L 56.4348 35.808L 58.0627 34.6461L 48.6116 21.4048L 46.9837 22.5667ZM 58.2349 35.393L 61.7003 14.7953L 59.728 14.4635L 56.2626 35.0612L 58.2349 35.393ZM 67.7594 17.7507L 56.4181 34.6703L 58.0794 35.7839L 69.4207 18.8643L 67.7594 17.7507ZM 57.0966 34.2387L 28.4283 38.6525L 28.7326 40.6292L 57.4009 36.2154L 57.0966 34.2387ZM 29.257 40.3773L 48.4742 22.7221L 47.1211 21.2493L 27.9039 38.9045L 29.257 40.3773ZM 27.8831 38.9241L 20.3223 46.2805L 21.717 47.7139L 29.2778 40.3576L 27.8831 38.9241ZM 21.0196 47.9972L 28.5805 47.9972L 28.5805 45.9972L 21.0196 45.9972L 21.0196 47.9972ZM 28.9603 47.9223L 57.6285 36.1521L 56.8689 34.302L 28.2007 46.0721L 28.9603 47.9223ZM 56.5308 34.531L 47.0797 44.2781L 48.5156 45.6703L 57.9667 35.9232L 56.5308 34.531ZM 47.693 43.9797L 28.4758 46.0027L 28.6852 47.9917L 47.9023 45.9687L 47.693 43.9797ZM 20.3163 46.2863L 1.72912 64.6771L 3.1358 66.0989L 21.723 47.708L 20.3163 46.2863ZM 3.00775 66.2059L 29.1558 47.8151L 28.0052 46.1792L 1.85717 64.5701L 3.00775 66.2059ZM 39.2917 64.388L 2.43246 64.388L 2.43246 66.388L 39.2917 66.388L 39.2917 64.388ZM 46.8705 44.5995L 40.2548 60.9673L 42.109 61.7168L 48.7248 45.3489L 46.8705 44.5995ZM 40.2759 60.9188L 38.3857 64.9647L 40.1977 65.8113L 42.0879 61.7653L 40.2759 60.9188ZM 2.53631 66.3826L 41.2858 62.3366L 41.0781 60.3474L 2.32861 64.3934L 2.53631 66.3826ZM 41.6456 62.228L 69.0537 47.8832L 68.1263 46.1112L 40.7182 60.456L 41.6456 62.228ZM 68.6869 46.0019L 47.8945 43.9789L 47.7008 45.9695L 68.4932 47.9925L 68.6869 46.0019ZM 67.8241 46.3543L 52.3873 64.7451L 53.9192 66.0309L 69.356 47.6401L 67.8241 46.3543ZM 53.1533 64.388L 39.2917 64.388L 39.2917 66.388L 53.1533 66.388L 53.1533 64.388ZM 68.6776 47.9933L 91.6753 45.9704L 91.5 43.9781L 68.5024 46.001L 68.6776 47.9933ZM 91.4291 45.9616L 104.03 47.9846L 104.347 46.0098L 91.7461 43.9869L 91.4291 45.9616ZM 104.189 47.9972L 117.105 47.9972L 117.105 45.9972L 104.189 45.9972L 104.189 47.9972ZM 116.377 47.6829L 133.704 66.0737L 135.16 64.7023L 117.833 46.3115L 116.377 47.6829ZM 134.952 64.5336L 104.708 46.1428L 103.669 47.8516L 133.912 66.2424L 134.952 64.5336ZM 134.432 64.388L 95.3681 64.388L 95.3681 66.388L 134.432 66.388L 134.432 64.388ZM 96.0987 64.7053L 92.3183 60.6593L 90.857 62.0247L 94.6374 66.0707L 96.0987 64.7053ZM 92.1169 60.4935L 69.1193 46.1487L 68.0608 47.8457L 91.0584 62.1905L 92.1169 60.4935ZM 91.4936 62.3376L 134.338 66.3836L 134.526 64.3924L 91.6816 60.3465L 91.4936 62.3376ZM 90.5876 44.9742L 90.5876 61.342L 92.5876 61.342L 92.5876 44.9742L 90.5876 44.9742ZM 92.2837 44.2563L 82.2312 34.5092L 80.839 35.945L 90.8915 45.6921L 92.2837 44.2563ZM 82.5185 35.0452L 78.7094 14.4475L 76.7427 14.8112L 80.5518 35.4089L 82.5185 35.0452ZM 67.7958 18.9152L 80.7409 35.8347L 82.3293 34.6194L 69.3842 17.6999L 67.7958 18.9152ZM 82.3316 35.8317L 92.3841 22.5904L 90.7911 21.381L 80.7386 34.6224L 82.3316 35.8317ZM 92.2356 21.224L 81.2093 11.8447L 79.9134 13.3681L 90.9397 22.7474L 92.2356 21.224ZM 90.873 22.6852L 107.254 39.4208L 108.684 38.0218L 92.3022 21.2862L 90.873 22.6852ZM 108.1 37.73L 81.6662 34.2357L 81.4041 36.2185L 107.838 39.7127L 108.1 37.73ZM 107.298 39.4625L 116.434 47.7383L 117.776 46.2561L 108.64 37.9802L 107.298 39.4625ZM 104.65 46.1098L 81.9962 34.3397L 81.0741 36.1145L 103.728 47.8846L 104.65 46.1098ZM 53.1533 66.388L 77.7261 66.388L 77.7261 64.388L 53.1533 64.388L 53.1533 66.388ZM 77.7261 66.388L 95.3681 66.388L 95.3681 64.388L 77.7261 64.388L 77.7261 66.388ZM 67.6944 47.4421L 76.8305 65.8329L 78.6216 64.9431L 69.4856 46.5523L 67.6944 47.4421Z" transform="translate(4 66.388) scale(1 -1)" fill="url(#paint4_linear)"/>
</g>
</g>
</g>
</g>
</g>
<defs>
<filter id="filter0_dd" x="0" y="0" width="144.748" height="74.388" filterUnits="userSpaceOnUse" color-interpolation-filters="sRGB">
<feFlood flood-opacity="0" result="BackgroundImageFix"/>
<feColorMatrix in="SourceAlpha" type="matrix" values="0 0 0 0 0 0 0 0 0 0 0 0 0 0 0 0 0 0 255 0"/>
<feOffset dy="4"/>
<feGaussianBlur stdDeviation="2"/>
<feColorMatrix type="matrix" values="0 0 0 0 0 0 0 0 0 0.470588 0 0 0 0 0.654902 0 0 0 0.25 0"/>
<feBlend mode="normal" in2="BackgroundImageFix" result="effect1_dropShadow"/>
<feColorMatrix in="SourceAlpha" type="matrix" values="0 0 0 0 0 0 0 0 0 0 0 0 0 0 0 0 0 0 255 0"/>
<feOffset dy="4"/>
<feGaussianBlur stdDeviation="2"/>
<feColorMatrix type="matrix" values="0 0 0 0 0.976471 0 0 0 0 0.67451 0 0 0 0 0.184314 0 0 0 0.25 0"/>
<feBlend mode="normal" in2="effect1_dropShadow" result="effect2_dropShadow"/>
<feBlend mode="normal" in="SourceGraphic" in2="effect2_dropShadow" result="shape"/>
</filter>

<linearGradient id="paint0_linear" x2="1" gradientUnits="userSpaceOnUse" gradientTransform="matrix(0 64 -132 0 200.432 1.38803)">
<stop offset="0.779006" stop-color="#DCCFDF"/>
<stop offset="0.950276" stop-color="white" stop-opacity="0"/>
</linearGradient>
<linearGradient id="paint1_linear" x2="1" gradientUnits="userSpaceOnUse" gradientTransform="matrix(0 64 -132 0 200.432 1.38803)">
<stop offset="0.618785" stop-color="#0078A7"/>
<stop offset="1" stop-color="white" stop-opacity="0"/>
</linearGradient>
<linearGradient id="paint2_linear" x2="1" gradientUnits="userSpaceOnUse" gradientTransform="matrix(0 64 -132 0 200.432 1.38803)">
<stop offset="0.414365" stop-color="#F9AC2F"/>
<stop offset="0.646409" stop-color="white" stop-opacity="0"/>
</linearGradient>
<linearGradient id="paint3_linear" x2="1" gradientUnits="userSpaceOnUse" gradientTransform="matrix(0 64 -132 0 200.432 1.38803)">
<stop stop-color="#F9AC2F"/>
<stop offset="0.20442" stop-color="white" stop-opacity="0"/>
</linearGradient>
<linearGradient id="paint4_linear" x2="1" gradientUnits="userSpaceOnUse" gradientTransform="matrix(0 64 -132 0 200.432 1.38803)">
<stop stop-color="#D32E5E"/>
<stop offset="0.370166" stop-color="white" stop-opacity="0"/>
</linearGradient>

</defs>
</svg>

