<svg width="146" height="75" viewBox="0 0 146 75" fill="none" xmlns="http://www.w3.org/2000/svg">
<g filter="url(#filter0_dd)">
<path d="M66.1575 0L54.8162 11.2184M66.1575 0L58.2816 13.2414M66.1575 0L78.1289 11.2184M66.1575 0L75.2936 13.2414M54.8162 11.2184L58.2816 13.2414M54.8162 11.2184L45.3652 20.5977M58.2816 13.2414L66.1575 16.9195M58.2816 13.2414L54.8162 33.8391M78.1289 11.2184L75.2936 13.2414M78.1289 11.2184L89.1551 20.5977M75.2936 13.2414L66.1575 16.9195M75.2936 13.2414L79.1026 33.8391M66.1575 16.9195L54.8162 33.8391M66.1575 16.9195L79.1026 33.8391M66.1575 16.9195L66.4636 30.5M45.3652 20.5977L54.8162 33.8391M45.3652 20.5977L26.148 38.2529M54.8162 33.8391L26.148 38.2529M54.8162 33.8391L26.148 45.6092M54.8162 33.8391L45.3652 43.5862M54.8162 33.8391L66.4636 45.5823M54.8162 33.8391L66.4636 30.5M26.148 38.2529L18.5871 45.6092M18.5871 45.6092H26.148M18.5871 45.6092L0 64M26.148 45.6092L45.3652 43.5862M26.148 45.6092L0 64M45.3652 43.5862L38.7494 59.954M45.3652 43.5862L66.1575 45.6092M0 64H36.8592M0 64L38.7494 59.954M36.8592 64L38.7494 59.954M36.8592 64H50.7208M38.7494 59.954L66.1575 45.6092M66.1575 45.6092L50.7208 64M66.1575 45.6092L89.1551 59.954M66.1575 45.6092L75.2936 64M66.1575 45.6092L66.4636 45.5823M50.7208 64H75.2936M92.9356 64H132M92.9356 64L89.1551 59.954M92.9356 64H75.2936M89.1551 43.5862L101.757 45.6092M89.1551 43.5862V59.954M89.1551 43.5862L79.1026 33.8391M89.1551 43.5862L66.4636 45.5823M101.757 45.6092H114.673M101.757 45.6092L132 64M101.757 45.6092L79.1026 33.8391M114.673 45.6092L132 64M114.673 45.6092L105.537 37.3333M132 64L89.1551 59.954M79.1026 33.8391L89.1551 20.5977M79.1026 33.8391L105.537 37.3333M79.1026 33.8391L66.4636 45.5823M79.1026 33.8391L66.4636 30.5M89.1551 20.5977L105.537 37.3333M66.4636 45.5823V30.5" transform="translate(7 65) scale(1 -1)" stroke="#5F4B8B" stroke-width="2"/>
<path d="M66.1575 0L54.8162 11.2184M66.1575 0L58.2816 13.2414M66.1575 0L78.1289 11.2184M66.1575 0L75.2936 13.2414M54.8162 11.2184L58.2816 13.2414M54.8162 11.2184L45.3652 20.5977M58.2816 13.2414L66.1575 16.9195M58.2816 13.2414L54.8162 33.8391M78.1289 11.2184L75.2936 13.2414M78.1289 11.2184L89.1551 20.5977M75.2936 13.2414L66.1575 16.9195M75.2936 13.2414L79.1026 33.8391M66.1575 16.9195L54.8162 33.8391M66.1575 16.9195L79.1026 33.8391M66.1575 16.9195L66.4636 30.5M45.3652 20.5977L54.8162 33.8391M45.3652 20.5977L26.148 38.2529M54.8162 33.8391L26.148 38.2529M54.8162 33.8391L26.148 45.6092M54.8162 33.8391L45.3652 43.5862M54.8162 33.8391L66.4636 45.5823M54.8162 33.8391L66.4636 30.5M26.148 38.2529L18.5871 45.6092M18.5871 45.6092H26.148M18.5871 45.6092L0 64M26.148 45.6092L45.3652 43.5862M26.148 45.6092L0 64M45.3652 43.5862L38.7494 59.954M45.3652 43.5862L66.1575 45.6092M0 64H36.8592M0 64L38.7494 59.954M36.8592 64L38.7494 59.954M36.8592 64H50.7208M38.7494 59.954L66.1575 45.6092M66.1575 45.6092L50.7208 64M66.1575 45.6092L89.1551 59.954M66.1575 45.6092L75.2936 64M66.1575 45.6092L66.4636 45.5823M50.7208 64H75.2936M92.9356 64H132M92.9356 64L89.1551 59.954M92.9356 64H75.2936M89.1551 43.5862L101.757 45.6092M89.1551 43.5862V59.954M89.1551 43.5862L79.1026 33.8391M89.1551 43.5862L66.4636 45.5823M101.757 45.6092H114.673M101.757 45.6092L132 64M101.757 45.6092L79.1026 33.8391M114.673 45.6092L132 64M114.673 45.6092L105.537 37.3333M132 64L89.1551 59.954M79.1026 33.8391L89.1551 20.5977M79.1026 33.8391L105.537 37.3333M79.1026 33.8391L66.4636 45.5823M79.1026 33.8391L66.4636 30.5M89.1551 20.5977L105.537 37.3333M66.4636 45.5823V30.5" transform="translate(7 65) scale(1 -1)" stroke="url(#paint0_linear)" stroke-width="2"/>
<path d="M66.1575 0L54.8162 11.2184M66.1575 0L58.2816 13.2414M66.1575 0L78.1289 11.2184M66.1575 0L75.2936 13.2414M54.8162 11.2184L58.2816 13.2414M54.8162 11.2184L45.3652 20.5977M58.2816 13.2414L66.1575 16.9195M58.2816 13.2414L54.8162 33.8391M78.1289 11.2184L75.2936 13.2414M78.1289 11.2184L89.1551 20.5977M75.2936 13.2414L66.1575 16.9195M75.2936 13.2414L79.1026 33.8391M66.1575 16.9195L54.8162 33.8391M66.1575 16.9195L79.1026 33.8391M66.1575 16.9195L66.4636 30.5M45.3652 20.5977L54.8162 33.8391M45.3652 20.5977L26.148 38.2529M54.8162 33.8391L26.148 38.2529M54.8162 33.8391L26.148 45.6092M54.8162 33.8391L45.3652 43.5862M54.8162 33.8391L66.4636 45.5823M54.8162 33.8391L66.4636 30.5M26.148 38.2529L18.5871 45.6092M18.5871 45.6092H26.148M18.5871 45.6092L0 64M26.148 45.6092L45.3652 43.5862M26.148 45.6092L0 64M45.3652 43.5862L38.7494 59.954M45.3652 43.5862L66.1575 45.6092M0 64H36.8592M0 64L38.7494 59.954M36.8592 64L38.7494 59.954M36.8592 64H50.7208M38.7494 59.954L66.1575 45.6092M66.1575 45.6092L50.7208 64M66.1575 45.6092L89.1551 59.954M66.1575 45.6092L75.2936 64M66.1575 45.6092L66.4636 45.5823M50.7208 64H75.2936M92.9356 64H132M92.9356 64L89.1551 59.954M92.9356 64H75.2936M89.1551 43.5862L101.757 45.6092M89.1551 43.5862V59.954M89.1551 43.5862L79.1026 33.8391M89.1551 43.5862L66.4636 45.5823M101.757 45.6092H114.673M101.757 45.6092L132 64M101.757 45.6092L79.1026 33.8391M114.673 45.6092L132 64M114.673 45.6092L105.537 37.3333M132 64L89.1551 59.954M79.1026 33.8391L89.1551 20.5977M79.1026 33.8391L105.537 37.3333M79.1026 33.8391L66.4636 45.5823M79.1026 33.8391L66.4636 30.5M89.1551 20.5977L105.537 37.3333M66.4636 45.5823V30.5" transform="translate(7 65) scale(1 -1)" stroke="url(#paint1_linear)" stroke-width="2"/>
<path d="M66.1575 0L54.8162 11.2184M66.1575 0L58.2816 13.2414M66.1575 0L78.1289 11.2184M66.1575 0L75.2936 13.2414M54.8162 11.2184L58.2816 13.2414M54.8162 11.2184L45.3652 20.5977M58.2816 13.2414L66.1575 16.9195M58.2816 13.2414L54.8162 33.8391M78.1289 11.2184L75.2936 13.2414M78.1289 11.2184L89.1551 20.5977M75.2936 13.2414L66.1575 16.9195M75.2936 13.2414L79.1026 33.8391M66.1575 16.9195L54.8162 33.8391M66.1575 16.9195L79.1026 33.8391M66.1575 16.9195L66.4636 30.5M45.3652 20.5977L54.8162 33.8391M45.3652 20.5977L26.148 38.2529M54.8162 33.8391L26.148 38.2529M54.8162 33.8391L26.148 45.6092M54.8162 33.8391L45.3652 43.5862M54.8162 33.8391L66.4636 45.5823M54.8162 33.8391L66.4636 30.5M26.148 38.2529L18.5871 45.6092M18.5871 45.6092H26.148M18.5871 45.6092L0 64M26.148 45.6092L45.3652 43.5862M26.148 45.6092L0 64M45.3652 43.5862L38.7494 59.954M45.3652 43.5862L66.1575 45.6092M0 64H36.8592M0 64L38.7494 59.954M36.8592 64L38.7494 59.954M36.8592 64H50.7208M38.7494 59.954L66.1575 45.6092M66.1575 45.6092L50.7208 64M66.1575 45.6092L89.1551 59.954M66.1575 45.6092L75.2936 64M66.1575 45.6092L66.4636 45.5823M50.7208 64H75.2936M92.9356 64H132M92.9356 64L89.1551 59.954M92.9356 64H75.2936M89.1551 43.5862L101.757 45.6092M89.1551 43.5862V59.954M89.1551 43.5862L79.1026 33.8391M89.1551 43.5862L66.4636 45.5823M101.757 45.6092H114.673M101.757 45.6092L132 64M101.757 45.6092L79.1026 33.8391M114.673 45.6092L132 64M114.673 45.6092L105.537 37.3333M132 64L89.1551 59.954M79.1026 33.8391L89.1551 20.5977M79.1026 33.8391L105.537 37.3333M79.1026 33.8391L66.4636 45.5823M79.1026 33.8391L66.4636 30.5M89.1551 20.5977L105.537 37.3333M66.4636 45.5823V30.5" transform="translate(7 65) scale(1 -1)" stroke="url(#paint2_linear)" stroke-width="2"/>
<path d="M66.1575 0L54.8162 11.2184M66.1575 0L58.2816 13.2414M66.1575 0L78.1289 11.2184M66.1575 0L75.2936 13.2414M54.8162 11.2184L58.2816 13.2414M54.8162 11.2184L45.3652 20.5977M58.2816 13.2414L66.1575 16.9195M58.2816 13.2414L54.8162 33.8391M78.1289 11.2184L75.2936 13.2414M78.1289 11.2184L89.1551 20.5977M75.2936 13.2414L66.1575 16.9195M75.2936 13.2414L79.1026 33.8391M66.1575 16.9195L54.8162 33.8391M66.1575 16.9195L79.1026 33.8391M66.1575 16.9195L66.4636 30.5M45.3652 20.5977L54.8162 33.8391M45.3652 20.5977L26.148 38.2529M54.8162 33.8391L26.148 38.2529M54.8162 33.8391L26.148 45.6092M54.8162 33.8391L45.3652 43.5862M54.8162 33.8391L66.4636 45.5823M54.8162 33.8391L66.4636 30.5M26.148 38.2529L18.5871 45.6092M18.5871 45.6092H26.148M18.5871 45.6092L0 64M26.148 45.6092L45.3652 43.5862M26.148 45.6092L0 64M45.3652 43.5862L38.7494 59.954M45.3652 43.5862L66.1575 45.6092M0 64H36.8592M0 64L38.7494 59.954M36.8592 64L38.7494 59.954M36.8592 64H50.7208M38.7494 59.954L66.1575 45.6092M66.1575 45.6092L50.7208 64M66.1575 45.6092L89.1551 59.954M66.1575 45.6092L75.2936 64M66.1575 45.6092L66.4636 45.5823M50.7208 64H75.2936M92.9356 64H132M92.9356 64L89.1551 59.954M92.9356 64H75.2936M89.1551 43.5862L101.757 45.6092M89.1551 43.5862V59.954M89.1551 43.5862L79.1026 33.8391M89.1551 43.5862L66.4636 45.5823M101.757 45.6092H114.673M101.757 45.6092L132 64M101.757 45.6092L79.1026 33.8391M114.673 45.6092L132 64M114.673 45.6092L105.537 37.3333M132 64L89.1551 59.954M79.1026 33.8391L89.1551 20.5977M79.1026 33.8391L105.537 37.3333M79.1026 33.8391L66.4636 45.5823M79.1026 33.8391L66.4636 30.5M89.1551 20.5977L105.537 37.3333M66.4636 45.5823V30.5" transform="translate(7 65) scale(1 -1)" stroke="url(#paint3_linear)" stroke-width="2"/>
<path d="M66.1575 0L54.8162 11.2184M66.1575 0L58.2816 13.2414M66.1575 0L78.1289 11.2184M66.1575 0L75.2936 13.2414M54.8162 11.2184L58.2816 13.2414M54.8162 11.2184L45.3652 20.5977M58.2816 13.2414L66.1575 16.9195M58.2816 13.2414L54.8162 33.8391M78.1289 11.2184L75.2936 13.2414M78.1289 11.2184L89.1551 20.5977M75.2936 13.2414L66.1575 16.9195M75.2936 13.2414L79.1026 33.8391M66.1575 16.9195L54.8162 33.8391M66.1575 16.9195L79.1026 33.8391M66.1575 16.9195L66.4636 30.5M45.3652 20.5977L54.8162 33.8391M45.3652 20.5977L26.148 38.2529M54.8162 33.8391L26.148 38.2529M54.8162 33.8391L26.148 45.6092M54.8162 33.8391L45.3652 43.5862M54.8162 33.8391L66.4636 45.5823M54.8162 33.8391L66.4636 30.5M26.148 38.2529L18.5871 45.6092M18.5871 45.6092H26.148M18.5871 45.6092L0 64M26.148 45.6092L45.3652 43.5862M26.148 45.6092L0 64M45.3652 43.5862L38.7494 59.954M45.3652 43.5862L66.1575 45.6092M0 64H36.8592M0 64L38.7494 59.954M36.8592 64L38.7494 59.954M36.8592 64H50.7208M38.7494 59.954L66.1575 45.6092M66.1575 45.6092L50.7208 64M66.1575 45.6092L89.1551 59.954M66.1575 45.6092L75.2936 64M66.1575 45.6092L66.4636 45.5823M50.7208 64H75.2936M92.9356 64H132M92.9356 64L89.1551 59.954M92.9356 64H75.2936M89.1551 43.5862L101.757 45.6092M89.1551 43.5862V59.954M89.1551 43.5862L79.1026 33.8391M89.1551 43.5862L66.4636 45.5823M101.757 45.6092H114.673M101.757 45.6092L132 64M101.757 45.6092L79.1026 33.8391M114.673 45.6092L132 64M114.673 45.6092L105.537 37.3333M132 64L89.1551 59.954M79.1026 33.8391L89.1551 20.5977M79.1026 33.8391L105.537 37.3333M79.1026 33.8391L66.4636 45.5823M79.1026 33.8391L66.4636 30.5M89.1551 20.5977L105.537 37.3333M66.4636 45.5823V30.5" transform="translate(7 65) scale(1 -1)" stroke="url(#paint4_linear)" stroke-width="2"/>
</g>
<defs>
<filter id="filter0_dd" x="0.567505" y="0" width="144.749" height="74.388" filterUnits="userSpaceOnUse" color-interpolation-filters="sRGB">
<feFlood flood-opacity="0" result="BackgroundImageFix"/>
<feColorMatrix in="SourceAlpha" type="matrix" values="0 0 0 0 0 0 0 0 0 0 0 0 0 0 0 0 0 0 255 0"/>
<feOffset dy="4"/>
<feGaussianBlur stdDeviation="2"/>
<feColorMatrix type="matrix" values="0 0 0 0 0 0 0 0 0 0.470588 0 0 0 0 0.654902 0 0 0 0.25 0"/>
<feBlend mode="normal" in2="BackgroundImageFix" result="effect1_dropShadow"/>
<feColorMatrix in="SourceAlpha" type="matrix" values="0 0 0 0 0 0 0 0 0 0 0 0 0 0 0 0 0 0 255 0"/>
<feOffset dy="4"/>
<feGaussianBlur stdDeviation="2"/>
<feColorMatrix type="matrix" values="0 0 0 0 0.976471 0 0 0 0 0.67451 0 0 0 0 0.184314 0 0 0 0.25 0"/>
<feBlend mode="normal" in2="effect1_dropShadow" result="effect2_dropShadow"/>
<feBlend mode="normal" in="SourceGraphic" in2="effect2_dropShadow" result="shape"/>
</filter>
<linearGradient id="paint0_linear" x2="1" gradientUnits="userSpaceOnUse" gradientTransform="translate(132) scale(132 64) rotate(90)">
<stop offset="0.779006" stop-color="#DCCFDF"/>
<stop offset="0.950276" stop-color="white" stop-opacity="0"/>
</linearGradient>
<linearGradient id="paint1_linear" x2="1" gradientUnits="userSpaceOnUse" gradientTransform="translate(132) scale(132 64) rotate(90)">
<stop offset="0.618785" stop-color="#0078A7"/>
<stop offset="1" stop-color="white" stop-opacity="0"/>
</linearGradient>
<linearGradient id="paint2_linear" x2="1" gradientUnits="userSpaceOnUse" gradientTransform="translate(132) scale(132 64) rotate(90)">
<stop offset="0.414365" stop-color="#F9AC2F"/>
<stop offset="0.646409" stop-color="white" stop-opacity="0"/>
</linearGradient>
<linearGradient id="paint3_linear" x2="1" gradientUnits="userSpaceOnUse" gradientTransform="translate(132) scale(132 64) rotate(90)">
<stop stop-color="#F9AC2F"/>
<stop offset="0.20442" stop-color="white" stop-opacity="0"/>
</linearGradient>
<linearGradient id="paint4_linear" x2="1" gradientUnits="userSpaceOnUse" gradientTransform="translate(132) scale(132 64) rotate(90)">
<stop stop-color="#D32E5E"/>
<stop offset="0.370166" stop-color="white" stop-opacity="0"/>
</linearGradient>
</defs>
</svg>
